<mxfile host="app.diagrams.net" modified="2023-10-02T04:13:16.778Z" agent="Mozilla/5.0 (Windows NT 10.0; Win64; x64) AppleWebKit/537.36 (KHTML, like Gecko) Chrome/117.0.0.0 Safari/537.36" etag="kMN9YoLovtEU2nOAqyDd" version="22.0.0" type="github">
  <diagram name="Page-1" id="WEeLoFSEDenImMPiWTRe">
    <mxGraphModel dx="823" dy="615" grid="1" gridSize="10" guides="1" tooltips="1" connect="1" arrows="1" fold="1" page="1" pageScale="1" pageWidth="850" pageHeight="1100" math="0" shadow="0">
      <root>
        <mxCell id="0" />
        <mxCell id="1" parent="0" />
        <mxCell id="BlhdO2MW0RdQwUiuu-N--4" value="" style="edgeStyle=orthogonalEdgeStyle;rounded=0;orthogonalLoop=1;jettySize=auto;html=1;" edge="1" parent="1" source="BlhdO2MW0RdQwUiuu-N--1" target="BlhdO2MW0RdQwUiuu-N--3">
          <mxGeometry relative="1" as="geometry" />
        </mxCell>
        <mxCell id="BlhdO2MW0RdQwUiuu-N--1" value="输入数据" style="shape=cylinder3;whiteSpace=wrap;html=1;boundedLbl=1;backgroundOutline=1;size=15;fillColor=#ffe6cc;strokeColor=#d79b00;fontStyle=1" vertex="1" parent="1">
          <mxGeometry x="265" y="20" width="60" height="80" as="geometry" />
        </mxCell>
        <mxCell id="BlhdO2MW0RdQwUiuu-N--27" value="" style="edgeStyle=orthogonalEdgeStyle;rounded=0;orthogonalLoop=1;jettySize=auto;html=1;" edge="1" parent="1" source="BlhdO2MW0RdQwUiuu-N--3" target="BlhdO2MW0RdQwUiuu-N--26">
          <mxGeometry relative="1" as="geometry" />
        </mxCell>
        <mxCell id="BlhdO2MW0RdQwUiuu-N--3" value="网络结构" style="whiteSpace=wrap;html=1;fillColor=#ffe6cc;strokeColor=#d79b00;fontStyle=1;" vertex="1" parent="1">
          <mxGeometry x="240" y="150" width="110" height="60" as="geometry" />
        </mxCell>
        <mxCell id="BlhdO2MW0RdQwUiuu-N--9" value="不同的基础骨干网络组合而成" style="text;html=1;strokeColor=none;fillColor=none;align=center;verticalAlign=middle;whiteSpace=wrap;rounded=0;fontStyle=1" vertex="1" parent="1">
          <mxGeometry x="370" y="165" width="100" height="30" as="geometry" />
        </mxCell>
        <mxCell id="BlhdO2MW0RdQwUiuu-N--12" value="" style="edgeStyle=orthogonalEdgeStyle;rounded=0;orthogonalLoop=1;jettySize=auto;html=1;" edge="1" parent="1" source="BlhdO2MW0RdQwUiuu-N--10" target="BlhdO2MW0RdQwUiuu-N--3">
          <mxGeometry relative="1" as="geometry" />
        </mxCell>
        <mxCell id="BlhdO2MW0RdQwUiuu-N--10" value="权重/参数" style="whiteSpace=wrap;html=1;fillColor=#ffe6cc;strokeColor=#d79b00;fontStyle=1;" vertex="1" parent="1">
          <mxGeometry x="80" y="150" width="120" height="60" as="geometry" />
        </mxCell>
        <mxCell id="BlhdO2MW0RdQwUiuu-N--15" value="" style="edgeStyle=orthogonalEdgeStyle;rounded=0;orthogonalLoop=1;jettySize=auto;html=1;" edge="1" parent="1" source="BlhdO2MW0RdQwUiuu-N--13" target="BlhdO2MW0RdQwUiuu-N--10">
          <mxGeometry relative="1" as="geometry" />
        </mxCell>
        <mxCell id="BlhdO2MW0RdQwUiuu-N--13" value="优化算法" style="ellipse;whiteSpace=wrap;html=1;fillColor=#ffe6cc;strokeColor=#d79b00;fontStyle=1;direction=south;" vertex="1" parent="1">
          <mxGeometry x="100" y="360" width="80" height="80" as="geometry" />
        </mxCell>
        <mxCell id="BlhdO2MW0RdQwUiuu-N--22" value="" style="edgeStyle=orthogonalEdgeStyle;rounded=0;orthogonalLoop=1;jettySize=auto;html=1;" edge="1" parent="1" source="BlhdO2MW0RdQwUiuu-N--19" target="BlhdO2MW0RdQwUiuu-N--13">
          <mxGeometry relative="1" as="geometry" />
        </mxCell>
        <mxCell id="BlhdO2MW0RdQwUiuu-N--19" value="损失函数" style="ellipse;whiteSpace=wrap;html=1;fillColor=#ffe6cc;strokeColor=#d79b00;fontStyle=1;" vertex="1" parent="1">
          <mxGeometry x="255" y="360" width="80" height="80" as="geometry" />
        </mxCell>
        <mxCell id="BlhdO2MW0RdQwUiuu-N--24" value="更新权重" style="text;html=1;strokeColor=none;fillColor=none;align=center;verticalAlign=middle;whiteSpace=wrap;rounded=0;" vertex="1" parent="1">
          <mxGeometry x="60" y="280" width="60" height="30" as="geometry" />
        </mxCell>
        <mxCell id="BlhdO2MW0RdQwUiuu-N--26" value="预测结果" style="rounded=1;whiteSpace=wrap;html=1;fillColor=#ffe6cc;strokeColor=#d79b00;fontStyle=1;" vertex="1" parent="1">
          <mxGeometry x="235" y="250" width="120" height="60" as="geometry" />
        </mxCell>
        <mxCell id="BlhdO2MW0RdQwUiuu-N--28" value="数据标签&lt;br&gt;" style="rounded=1;whiteSpace=wrap;html=1;fillColor=#ffe6cc;strokeColor=#d79b00;fontStyle=1;" vertex="1" parent="1">
          <mxGeometry x="450" y="250" width="120" height="60" as="geometry" />
        </mxCell>
      </root>
    </mxGraphModel>
  </diagram>
</mxfile>
